<mxfile host="app.diagrams.net" modified="2022-06-06T05:39:04.036Z" agent="5.0 (Windows NT 10.0; Win64; x64) AppleWebKit/537.36 (KHTML, like Gecko) Chrome/102.0.5005.63 Safari/537.36" etag="DrmxVHUW_MNuvbsSLhOD" version="19.0.0" type="github">
  <diagram id="WtwdLTahFNagl0Wl4QjL" name="Page-1">
    <mxGraphModel dx="2062" dy="1122" grid="1" gridSize="10" guides="1" tooltips="1" connect="1" arrows="1" fold="1" page="1" pageScale="1" pageWidth="850" pageHeight="1100" math="0" shadow="0">
      <root>
        <mxCell id="0" />
        <mxCell id="1" parent="0" />
        <mxCell id="Eg7NcJpNhZgTsHoe7SzR-1" value="" style="shape=cube;whiteSpace=wrap;html=1;boundedLbl=1;backgroundOutline=1;darkOpacity=0.05;darkOpacity2=0.1;size=100;direction=south;fillColor=#f5f5f5;fontColor=#333333;strokeColor=#666666;" vertex="1" parent="1">
          <mxGeometry x="30" y="270" width="120" height="400" as="geometry" />
        </mxCell>
        <mxCell id="Eg7NcJpNhZgTsHoe7SzR-2" value="" style="shape=cube;whiteSpace=wrap;html=1;boundedLbl=1;backgroundOutline=1;darkOpacity=0.05;darkOpacity2=0.1;size=90;direction=south;fillColor=#ffe6cc;strokeColor=#d79b00;" vertex="1" parent="1">
          <mxGeometry x="100" y="320" width="110" height="272.5" as="geometry" />
        </mxCell>
        <mxCell id="Eg7NcJpNhZgTsHoe7SzR-5" value="" style="shape=cube;whiteSpace=wrap;html=1;boundedLbl=1;backgroundOutline=1;darkOpacity=0.05;darkOpacity2=0.1;size=90;direction=south;fillColor=#ffe6cc;strokeColor=#d79b00;" vertex="1" parent="1">
          <mxGeometry x="140" y="320" width="110" height="272.5" as="geometry" />
        </mxCell>
        <mxCell id="Eg7NcJpNhZgTsHoe7SzR-6" value="" style="shape=cube;whiteSpace=wrap;html=1;boundedLbl=1;backgroundOutline=1;darkOpacity=0.05;darkOpacity2=0.1;size=90;direction=south;fillColor=#f8cecc;strokeColor=#b85450;" vertex="1" parent="1">
          <mxGeometry x="180" y="320" width="110" height="272.5" as="geometry" />
        </mxCell>
        <mxCell id="Eg7NcJpNhZgTsHoe7SzR-7" value="" style="shape=cube;whiteSpace=wrap;html=1;boundedLbl=1;backgroundOutline=1;darkOpacity=0.05;darkOpacity2=0.1;size=20;direction=south;" vertex="1" parent="1">
          <mxGeometry x="260" y="415" width="120" height="82.5" as="geometry" />
        </mxCell>
        <mxCell id="Eg7NcJpNhZgTsHoe7SzR-8" value="" style="shape=cube;whiteSpace=wrap;html=1;boundedLbl=1;backgroundOutline=1;darkOpacity=0.05;darkOpacity2=0.1;size=20;direction=south;" vertex="1" parent="1">
          <mxGeometry x="390" y="415" width="150" height="82.5" as="geometry" />
        </mxCell>
        <mxCell id="Eg7NcJpNhZgTsHoe7SzR-9" value="" style="shape=cube;whiteSpace=wrap;html=1;boundedLbl=1;backgroundOutline=1;darkOpacity=0.05;darkOpacity2=0.1;size=20;direction=south;" vertex="1" parent="1">
          <mxGeometry x="550" y="415" width="300" height="82.5" as="geometry" />
        </mxCell>
        <mxCell id="Eg7NcJpNhZgTsHoe7SzR-11" value="" style="shape=cube;whiteSpace=wrap;html=1;boundedLbl=1;backgroundOutline=1;darkOpacity=0.05;darkOpacity2=0.1;size=20;direction=south;" vertex="1" parent="1">
          <mxGeometry x="860" y="415" width="150" height="82.5" as="geometry" />
        </mxCell>
      </root>
    </mxGraphModel>
  </diagram>
</mxfile>
